<svg xmlns="http://www.w3.org/2000/svg" width="39.94" height="39.91" viewBox="0 0 39.94 39.91">
  <metadata><?xpacket begin="﻿" id="W5M0MpCehiHzreSzNTczkc9d"?>
<x:xmpmeta xmlns:x="adobe:ns:meta/" x:xmptk="Adobe XMP Core 5.6-c138 79.159824, 2016/09/14-01:09:01        ">
   <rdf:RDF xmlns:rdf="http://www.w3.org/1999/02/22-rdf-syntax-ns#">
      <rdf:Description rdf:about=""/>
   </rdf:RDF>
</x:xmpmeta>
                                                                                                    
                                                                                                    
                                                                                                    
                                                                                                    
                                                                                                    
                                                                                                    
                                                                                                    
                                                                                                    
                                                                                                    
                                                                                                    
                                                                                                    
                                                                                                    
                                                                                                    
                                                                                                    
                                                                                                    
                                                                                                    
                                                                                                    
                                                                                                    
                                                                                                    
                                                                                                    
                           
<?xpacket end="w"?></metadata>
<defs>
    <style>
      .cls-1 {
        fill: #767676;
        fill-rule: evenodd;
      }
    </style>
  </defs>
  <path class="cls-1" d="M1301.46,3043.1a19.95,19.95,0,1,1-19.97,19.95A19.958,19.958,0,0,1,1301.46,3043.1Zm-4.55,30.51a10.562,10.562,0,1,1,0-21.12,10.857,10.857,0,0,1,7.06,2.59l-2.73,3.09a6.646,6.646,0,0,0-4.33-1.59,6.471,6.471,0,1,0,0,12.94c3.08,0,5.09-1.47,5.75-4.12h-5.7v-4.09h10.1v2.05C1307.06,3069.49,1302.98,3073.61,1296.91,3073.61Zm21.38-12.29h-3.12v-3.12h-2.5v3.12h-3.12v2.49h3.12v3.12h2.5v-3.12h3.12v-2.49Z" transform="translate(-1281.5 -3043.09)"/>
</svg>
