<svg xmlns="http://www.w3.org/2000/svg" width="39.94" height="39.91" viewBox="0 0 39.94 39.91">
  <metadata><?xpacket begin="﻿" id="W5M0MpCehiHzreSzNTczkc9d"?>
<x:xmpmeta xmlns:x="adobe:ns:meta/" x:xmptk="Adobe XMP Core 5.6-c138 79.159824, 2016/09/14-01:09:01        ">
   <rdf:RDF xmlns:rdf="http://www.w3.org/1999/02/22-rdf-syntax-ns#">
      <rdf:Description rdf:about=""/>
   </rdf:RDF>
</x:xmpmeta>
                                                                                                    
                                                                                                    
                                                                                                    
                                                                                                    
                                                                                                    
                                                                                                    
                                                                                                    
                                                                                                    
                                                                                                    
                                                                                                    
                                                                                                    
                                                                                                    
                                                                                                    
                                                                                                    
                                                                                                    
                                                                                                    
                                                                                                    
                                                                                                    
                                                                                                    
                                                                                                    
                           
<?xpacket end="w"?></metadata>
<defs>
    <style>
      .cls-1 {
        fill: #767676;
        fill-rule: evenodd;
      }
    </style>
  </defs>
  <path class="cls-1" d="M1441.25,3058.99a4.215,4.215,0,1,0,4.22,4.22A4.221,4.221,0,0,0,1441.25,3058.99Zm9.87-3.24a3.971,3.971,0,0,0-.95-1.46,3.751,3.751,0,0,0-1.46-.94,6.828,6.828,0,0,0-2.35-.44c-1.33-.06-1.73-0.07-5.11-0.07s-3.79.01-5.12,0.07a6.828,6.828,0,0,0-2.35.44,3.9,3.9,0,0,0-1.46.94,3.826,3.826,0,0,0-.94,1.46,6.59,6.59,0,0,0-.44,2.35c-0.06,1.33-.07,1.73-0.07,5.11s0.01,3.77.07,5.11a6.7,6.7,0,0,0,.44,2.35,3.789,3.789,0,0,0,.94,1.45,3.927,3.927,0,0,0,1.46.95,7.085,7.085,0,0,0,2.35.44c1.33,0.06,1.74.07,5.12,0.07s3.78-.01,5.11-0.07a7.085,7.085,0,0,0,2.35-.44,3.774,3.774,0,0,0,1.46-.95,3.933,3.933,0,0,0,.95-1.45,7.012,7.012,0,0,0,.43-2.35c0.06-1.33.08-1.73,0.08-5.11s-0.02-3.78-.08-5.11A6.9,6.9,0,0,0,1451.12,3055.75Zm-9.87,13.95a6.5,6.5,0,1,1,6.5-6.49A6.506,6.506,0,0,1,1441.25,3069.7Zm6.76-11.73a1.515,1.515,0,1,1,1.51-1.52A1.519,1.519,0,0,1,1448.01,3057.97Zm-6.76-14.87a19.95,19.95,0,1,0,19.97,19.95A19.958,19.958,0,0,0,1441.25,3043.1Zm12.58,25.32a9.014,9.014,0,0,1-.59,3.07,5.982,5.982,0,0,1-1.46,2.24,6.062,6.062,0,0,1-2.24,1.46,9.066,9.066,0,0,1-3.07.59c-1.35.06-1.79,0.08-5.22,0.08s-3.87-.02-5.22-0.08a9.131,9.131,0,0,1-3.08-.59,6.062,6.062,0,0,1-2.24-1.46,5.982,5.982,0,0,1-1.46-2.24,9.263,9.263,0,0,1-.59-3.07c-0.06-1.35-.08-1.78-0.08-5.21s0.02-3.87.08-5.22a9.373,9.373,0,0,1,.59-3.07,6.062,6.062,0,0,1,1.46-2.24,6.189,6.189,0,0,1,2.24-1.46,9.384,9.384,0,0,1,3.08-.59c1.35-.06,1.78-0.07,5.22-0.07s3.87,0.01,5.22.07a9.318,9.318,0,0,1,3.07.59,6.189,6.189,0,0,1,2.24,1.46,6.062,6.062,0,0,1,1.46,2.24,9.118,9.118,0,0,1,.59,3.07c0.06,1.35.08,1.78,0.08,5.22S1453.89,3067.07,1453.83,3068.42Z" transform="translate(-1421.28 -3043.09)"/>
</svg>
