<svg xmlns="http://www.w3.org/2000/svg" width="39.94" height="39.91" viewBox="0 0 39.94 39.91">
  <metadata><?xpacket begin="﻿" id="W5M0MpCehiHzreSzNTczkc9d"?>
<x:xmpmeta xmlns:x="adobe:ns:meta/" x:xmptk="Adobe XMP Core 5.6-c138 79.159824, 2016/09/14-01:09:01        ">
   <rdf:RDF xmlns:rdf="http://www.w3.org/1999/02/22-rdf-syntax-ns#">
      <rdf:Description rdf:about=""/>
   </rdf:RDF>
</x:xmpmeta>
                                                                                                    
                                                                                                    
                                                                                                    
                                                                                                    
                                                                                                    
                                                                                                    
                                                                                                    
                                                                                                    
                                                                                                    
                                                                                                    
                                                                                                    
                                                                                                    
                                                                                                    
                                                                                                    
                                                                                                    
                                                                                                    
                                                                                                    
                                                                                                    
                                                                                                    
                                                                                                    
                           
<?xpacket end="w"?></metadata>
<defs>
    <style>
      .cls-1 {
        fill: #767676;
        fill-rule: evenodd;
      }
    </style>
  </defs>
  <path class="cls-1" d="M1510.71,3043.03a19.955,19.955,0,1,0,19.97,19.95A19.958,19.958,0,0,0,1510.71,3043.03Zm-4.45,29.36h-5.56V3058.9h5.56v13.49Zm-2.9-15.87h-0.03c-1.52,0-2.5-.83-2.5-2.14a2.282,2.282,0,0,1,2.56-2.24,2.241,2.241,0,0,1,2.53,2.19C1505.92,3055.63,1504.93,3056.52,1503.36,3056.52Zm18.78,15.87h-4.77v-7.27c0-1.83-.64-3.07-2.27-3.07a2.481,2.481,0,0,0-2.33,1.65,3.074,3.074,0,0,0-.16,1.1v7.59h-4.49s0.06-11.9,0-13.49h4.49v1.83a4.985,4.985,0,0,1,4.2-2.25c2.97,0,5.33,1.94,5.33,6.12v7.79Z" transform="translate(-1490.75 -3043.03)"/>
</svg>
