<svg xmlns="http://www.w3.org/2000/svg" width="39.94" height="39.91" viewBox="0 0 39.94 39.91">
  <metadata><?xpacket begin="﻿" id="W5M0MpCehiHzreSzNTczkc9d"?>
<x:xmpmeta xmlns:x="adobe:ns:meta/" x:xmptk="Adobe XMP Core 5.6-c138 79.159824, 2016/09/14-01:09:01        ">
   <rdf:RDF xmlns:rdf="http://www.w3.org/1999/02/22-rdf-syntax-ns#">
      <rdf:Description rdf:about=""/>
   </rdf:RDF>
</x:xmpmeta>
                                                                                                    
                                                                                                    
                                                                                                    
                                                                                                    
                                                                                                    
                                                                                                    
                                                                                                    
                                                                                                    
                                                                                                    
                                                                                                    
                                                                                                    
                                                                                                    
                                                                                                    
                                                                                                    
                                                                                                    
                                                                                                    
                                                                                                    
                                                                                                    
                                                                                                    
                                                                                                    
                           
<?xpacket end="w"?></metadata>
<defs>
    <style>
      .cls-1 {
        fill: #767676;
        fill-rule: evenodd;
      }
    </style>
  </defs>
  <path class="cls-1" d="M1581.03,3043.1a19.95,19.95,0,1,1-19.97,19.95A19.958,19.958,0,0,1,1581.03,3043.1Zm1.61,26.71c-1.51-.11-2.14-0.86-3.33-1.58-0.65,3.41-1.44,6.68-3.8,8.39-0.73-5.16,1.07-9.03,1.9-13.14-1.42-2.39.18-7.2,3.17-6.01,3.69,1.46-3.19,8.88,1.43,9.81,4.82,0.97,6.79-8.36,3.8-11.39-4.32-4.39-12.58-.1-11.57,6.17,0.25,1.53,1.84,2,.64,4.11-2.77-.61-3.59-2.79-3.49-5.69,0.17-4.76,4.28-8.09,8.4-8.55,5.21-.58,10.1,1.91,10.77,6.81,0.76,5.52-2.35,11.5-7.92,11.07h0Z" transform="translate(-1561.06 -3043.09)"/>
</svg>
