<svg xmlns="http://www.w3.org/2000/svg" width="39.94" height="39.91" viewBox="0 0 39.94 39.91">
  <metadata><?xpacket begin="﻿" id="W5M0MpCehiHzreSzNTczkc9d"?>
<x:xmpmeta xmlns:x="adobe:ns:meta/" x:xmptk="Adobe XMP Core 5.6-c138 79.159824, 2016/09/14-01:09:01        ">
   <rdf:RDF xmlns:rdf="http://www.w3.org/1999/02/22-rdf-syntax-ns#">
      <rdf:Description rdf:about=""/>
   </rdf:RDF>
</x:xmpmeta>
                                                                                                    
                                                                                                    
                                                                                                    
                                                                                                    
                                                                                                    
                                                                                                    
                                                                                                    
                                                                                                    
                                                                                                    
                                                                                                    
                                                                                                    
                                                                                                    
                                                                                                    
                                                                                                    
                                                                                                    
                                                                                                    
                                                                                                    
                                                                                                    
                                                                                                    
                                                                                                    
                           
<?xpacket end="w"?></metadata>
<defs>
    <style>
      .cls-1 {
        fill: #767676;
        fill-rule: evenodd;
      }
    </style>
  </defs>
  <path class="cls-1" d="M1371.71,3043a19.955,19.955,0,1,0,19.98,19.96A19.967,19.967,0,0,0,1371.71,3043Zm9.85,15.87c0.01,0.21.01,0.41,0.01,0.61a13.386,13.386,0,0,1-20.6,11.27,10.367,10.367,0,0,0,1.12.06,9.4,9.4,0,0,0,5.84-2.01,4.721,4.721,0,0,1-4.39-3.26,5.143,5.143,0,0,0,.88.08,6,6,0,0,0,1.42-.17,4.547,4.547,0,0,1-3.59-4.61v-0.05c0,0.35,1.18.56,1.95,0.58a4.776,4.776,0,0,1-2.18-3.91,4.674,4.674,0,0,1,.59-2.36,13.35,13.35,0,0,0,9.68,4.91,4.754,4.754,0,0,1-.14-1.07,4.711,4.711,0,0,1,8.14-3.22,9.5,9.5,0,0,0,2.99-1.14,4.72,4.72,0,0,1-2.08,2.6,9.453,9.453,0,0,0,2.71-.74A9.525,9.525,0,0,1,1381.56,3058.87Z" transform="translate(-1351.75 -3043)"/>
</svg>
