<?xml version="1.0" encoding="utf-8"?>
<!-- Generator: Adobe Illustrator 21.0.0, SVG Export Plug-In . SVG Version: 6.00 Build 0)  -->
<!DOCTYPE svg PUBLIC "-//W3C//DTD SVG 1.1//EN" "http://www.w3.org/Graphics/SVG/1.1/DTD/svg11.dtd">
<svg version="1.1" id="Layer_1" xmlns="http://www.w3.org/2000/svg" xmlns:xlink="http://www.w3.org/1999/xlink" x="0px" y="0px"
	 viewBox="0 0 17 13.7" style="enable-background:new 0 0 17 13.7;" xml:space="preserve">
	 <style>
      .cls-1 {
        fill: #d5d5d5;
        fill-rule: evenodd;
      }
    </style>
<path class="cls-1" d="M15.5,6H3V2.5C3,1.7,3.7,1,4.5,1S6,1.7,6,2.5V4h1V2.5C7,1.1,5.9,0,4.5,0S2,1.1,2,2.5V6H1.5C0.7,6,0,6.7,0,7.5v0.4
	c0,2.1,1.6,3.9,3.7,4l-0.7,1.3l0.9,0.4L4.8,12h7.4l0.9,1.7l0.9-0.4L13.3,12c2.1-0.2,3.7-1.9,3.7-4V7.5C17,6.7,16.3,6,15.5,6z
	 M16,7.9c0,1.7-1.4,3.1-3.1,3.1H4.1C2.4,11,1,9.6,1,7.9V7.5C1,7.2,1.2,7,1.5,7h14C15.8,7,16,7.2,16,7.5V7.9z"/>
</svg>
