<?xml version="1.0" encoding="utf-8"?>
<!-- Generator: Adobe Illustrator 21.0.0, SVG Export Plug-In . SVG Version: 6.00 Build 0)  -->
<!DOCTYPE svg PUBLIC "-//W3C//DTD SVG 1.1//EN" "http://www.w3.org/Graphics/SVG/1.1/DTD/svg11.dtd">
<svg version="1.1" id="Layer_1" xmlns="http://www.w3.org/2000/svg" xmlns:xlink="http://www.w3.org/1999/xlink" x="0px" y="0px"
	 viewBox="0 0 17 13.7" style="enable-background:new 0 0 17 13.7;" xml:space="preserve">
<style type="text/css">
	.st0{fill:#d5d5d5;}
</style>
<path class="st0" d="M17,2.6c0-1.2-1-2.2-2.2-2.2H2.2C1,0.4,0,1.3,0,2.6v8.8h1v2h3v-2h9v2h3v-2h1V2.6z M2.2,1.4h12.6
	c0.7,0,1.2,0.5,1.2,1.2v1.5c-0.5-0.7-1.3-1.2-2.2-1.2h-2.6C9.8,2.9,8.7,4,8.5,5.4l0,0C8.3,4,7.2,2.9,5.8,2.9H3.2
	C2.3,2.9,1.5,3.4,1,4.1V2.6C1,1.9,1.5,1.4,2.2,1.4z M14.4,5.4H9.5c0.2-0.9,0.8-1.5,1.6-1.5h2.6c0.8,0,1.5,0.6,1.6,1.5H14.4z
	 M1.5,5.4c0.2-0.9,0.8-1.5,1.6-1.5h2.6c0.8,0,1.5,0.6,1.6,1.5H2.6H1.5z M3,12.4H2v-1h1V12.4z M15,12.4h-1v-1h1V12.4z M16,10.4h-3H4
	H1V8c0-0.9,0.7-1.6,1.6-1.6h4.9h1h1h4.9C15.3,6.4,16,7.1,16,8V10.4z"/>
</svg>
