<svg xmlns="http://www.w3.org/2000/svg" width="15" height="15" viewBox="0 0 15 15">
  <metadata><?xpacket begin="﻿" id="W5M0MpCehiHzreSzNTczkc9d"?>
<x:xmpmeta xmlns:x="adobe:ns:meta/" x:xmptk="Adobe XMP Core 5.6-c138 79.159824, 2016/09/14-01:09:01        ">
   <rdf:RDF xmlns:rdf="http://www.w3.org/1999/02/22-rdf-syntax-ns#">
      <rdf:Description rdf:about=""/>
   </rdf:RDF>
</x:xmpmeta>
                                                                                                    
                                                                                                    
                                                                                                    
                                                                                                    
                                                                                                    
                                                                                                    
                                                                                                    
                                                                                                    
                                                                                                    
                                                                                                    
                                                                                                    
                                                                                                    
                                                                                                    
                                                                                                    
                                                                                                    
                                                                                                    
                                                                                                    
                                                                                                    
                                                                                                    
                                                                                                    
                           
<?xpacket end="w"?></metadata>
<defs>
    <style>
      .cls-1 {
        fill: #d5d5d5;
        fill-rule: evenodd;
      }
    </style>
  </defs>
  <path class="cls-1" d="M354.9,1254.21a1.673,1.673,0,0,0-.969-1.39c-0.244-.08-0.593-0.17-1-0.28a8.314,8.314,0,0,1-2.293-.82,4.131,4.131,0,0,1-.48-1.87,6.827,6.827,0,0,0,.624-2.89,8.878,8.878,0,0,0-.389-3.38,3.442,3.442,0,0,0-5.79,0,8.83,8.83,0,0,0-.39,3.38,6.827,6.827,0,0,0,.624,2.89,4.107,4.107,0,0,1-.479,1.87,8.322,8.322,0,0,1-2.294.82c-0.4.11-.754,0.2-1,0.28a1.674,1.674,0,0,0-.968,1.39,14.972,14.972,0,0,0-.1,2.3,0.492,0.492,0,0,0,.493.49h14.013a0.492,0.492,0,0,0,.494-0.49A14.972,14.972,0,0,0,354.9,1254.21Zm-9.7-7.25c0-.21,0-0.41,0-0.61a3.331,3.331,0,0,0,.889.12,3.436,3.436,0,0,0,2.53-1.11,2.665,2.665,0,0,0,1.163.56c0.009,0.32.01,0.67,0.01,1.04a5.665,5.665,0,0,1-.811,2.98,1.546,1.546,0,0,1-2.973,0A5.675,5.675,0,0,1,345.2,1246.96Zm2.3-3.97c1.539,0,2.049.59,2.217,1.89a1.6,1.6,0,0,1-.727-0.56,0.517,0.517,0,0,0-.364-0.21,0.506,0.506,0,0,0-.464.24,2.469,2.469,0,0,1-2.922.98C345.352,1243.72,345.792,1242.99,347.5,1242.99Zm-6.513,13.02c0-1.25.046-2.13,0.412-2.26,0.2-.07.551-0.16,0.918-0.26a6.826,6.826,0,0,0,2.741-1.08,2.773,2.773,0,0,0,.6-1.32,2.269,2.269,0,0,0,3.692,0,2.783,2.783,0,0,0,.6,1.32,6.82,6.82,0,0,0,2.741,1.08c0.367,0.1.714,0.19,0.918,0.26,0.366,0.13.407,1.01,0.411,2.26H340.987Z" transform="translate(-340 -1242)"/>
</svg>
