<svg xmlns="http://www.w3.org/2000/svg" width="12.937" height="15.937" viewBox="0 0 12.937 15.937">
  <metadata><?xpacket begin="﻿" id="W5M0MpCehiHzreSzNTczkc9d"?>
<x:xmpmeta xmlns:x="adobe:ns:meta/" x:xmptk="Adobe XMP Core 5.6-c138 79.159824, 2016/09/14-01:09:01        ">
   <rdf:RDF xmlns:rdf="http://www.w3.org/1999/02/22-rdf-syntax-ns#">
      <rdf:Description rdf:about=""/>
   </rdf:RDF>
</x:xmpmeta>
                                                                                                    
                                                                                                    
                                                                                                    
                                                                                                    
                                                                                                    
                                                                                                    
                                                                                                    
                                                                                                    
                                                                                                    
                                                                                                    
                                                                                                    
                                                                                                    
                                                                                                    
                                                                                                    
                                                                                                    
                                                                                                    
                                                                                                    
                                                                                                    
                                                                                                    
                                                                                                    
                           
<?xpacket end="w"?></metadata>
<defs>
    <style>
      .cls-1 {
        fill: #d5d5d5;
        fill-rule: evenodd;
      }
    </style>
  </defs>
  <path id="Shape_10_copy" data-name="Shape 10 copy" class="cls-1" d="M403.831,500.233a5.429,5.429,0,0,1,5.438,5.408c0,4.426-4.842,7.848-5.048,7.991l-0.39.271-0.389-.271c-0.207-.143-5.048-3.565-5.048-7.991a5.429,5.429,0,0,1,5.437-5.408m0-1.026a6.458,6.458,0,0,0-6.468,6.434c0,4.962,5.264,8.676,5.488,8.832l0.389,0.27,0.591,0.413,0.592-.413,0.39-.271c0.562-.392,5.487-3.972,5.487-8.831a6.459,6.459,0,0,0-6.469-6.434h0Zm0,4.406a2.029,2.029,0,1,1-2.039,2.028,2.036,2.036,0,0,1,2.039-2.028m0-1.026a3.054,3.054,0,1,0,3.071,3.054,3.065,3.065,0,0,0-3.071-3.054h0Z" transform="translate(-397.375 -499.219)"/>
</svg>
