<?xml version="1.0" encoding="utf-8"?>
<!-- Generator: Adobe Illustrator 15.0.0, SVG Export Plug-In . SVG Version: 6.00 Build 0)  -->
<!DOCTYPE svg PUBLIC "-//W3C//DTD SVG 1.1//EN" "http://www.w3.org/Graphics/SVG/1.1/DTD/svg11.dtd">
<svg version="1.1" id="Layer_1" xmlns="http://www.w3.org/2000/svg" xmlns:xlink="http://www.w3.org/1999/xlink" x="0px" y="0px"
	 width="372.294px" height="434.652px" viewBox="0 0 372.294 434.652" enable-background="new 0 0 372.294 434.652"
	 xml:space="preserve">
<path fill="#6B6B6B" d="M44.958,434.652l11.235-25.341h3.891l11.234,25.341h-4.332l-2.791-6.264H52.007l-2.753,6.264H44.958z
	 M53.402,424.897H62.8l-4.699-10.583L53.402,424.897z"/>
<path fill="#6B6B6B" d="M78.005,434.652v-25.197h11.051c2.68,0,4.773,0.685,6.278,2.052c1.542,1.332,2.313,3.096,2.313,5.256
	c0,2.195-0.771,3.995-2.313,5.399c-1.505,1.403-3.598,2.088-6.278,2.088h-7.012v10.402H78.005z M82.044,420.614h6.682
	c3.047,0,4.846-1.368,4.846-3.779c0-2.412-1.799-3.744-4.846-3.744h-6.682V420.614z"/>
<path fill="#6B6B6B" d="M100.001,434.652l11.234-25.341h3.892l11.234,25.341h-4.332l-2.791-6.264H107.05l-2.753,6.264H100.001z
	 M108.445,424.897h9.398l-4.699-10.583L108.445,424.897z"/>
<path fill="#6B6B6B" d="M133.048,434.652v-25.197h11.712c2.606,0,4.699,0.648,6.204,1.98c1.505,1.332,2.276,3.06,2.276,5.183
	c0,3.456-2.055,6.12-5.58,6.947l8.077,11.087h-4.883l-7.746-10.654h-6.021v10.654H133.048z M137.087,420.506h7.416
	c2.937,0,4.663-1.332,4.663-3.743c0-2.304-1.726-3.672-4.663-3.672h-7.416V420.506z"/>
<polygon fill="#6B6B6B" points="159.927,409.455 180.964,409.455 180.964,413.091 172.446,413.091 172.446,434.652 168.407,434.652 
	168.407,413.091 159.927,413.091 "/>
<polygon fill="#6B6B6B" points="187.833,434.652 187.833,409.455 191.946,409.455 200.279,420.794 208.54,409.455 212.578,409.455 
	212.578,434.652 208.54,434.652 208.54,415.503 201.38,425.006 199.031,425.006 191.872,415.503 191.872,434.652 "/>
<polygon fill="#6B6B6B" points="221.91,434.652 221.91,409.455 240.192,409.455 240.192,413.09 225.948,413.09 225.948,419.391 
	237.549,419.391 237.549,423.025 225.948,423.025 225.948,431.017 240.669,431.017 240.669,434.652 "/>
<polygon fill="#6B6B6B" points="248.091,434.652 248.091,409.455 251.616,409.455 266.116,427.705 266.116,409.455 270.082,409.455 
	270.082,434.652 266.667,434.652 252.056,416.331 252.056,434.652 "/>
<polygon fill="#6B6B6B" points="276.917,409.455 297.953,409.455 297.953,413.091 289.435,413.091 289.435,434.652 285.397,434.652 
	285.397,413.091 276.917,413.091 "/>
<path fill="#6B6B6B" d="M303.685,432.421v-4.284c1.027,0.9,2.423,1.656,4.147,2.305c1.763,0.647,3.525,0.972,5.287,0.972
	c3.379,0,5.947-1.404,5.947-3.744c0-1.008-0.514-1.8-1.138-2.34c-0.294-0.252-0.734-0.504-1.321-0.756
	c-1.175-0.54-1.873-0.72-3.525-1.188l-0.514-0.144c-1.432-0.396-2.57-0.756-3.341-1.044s-1.615-0.721-2.569-1.259
	c-1.872-1.153-2.644-2.773-2.644-5.077c0-4.175,3.562-6.875,9.325-6.875c3.084,0,5.837,0.685,8.224,2.088v3.96
	c-2.606-1.548-5.323-2.34-8.149-2.34c-3.525,0-5.25,1.332-5.25,3.204c0,1.079,0.623,1.655,1.504,2.267
	c0.478,0.288,1.652,0.648,2.276,0.901l2.938,0.827c1.945,0.575,3.084,1.008,4.698,1.871c2.277,1.188,3.488,2.988,3.636,5.832
	c0,2.339-0.955,4.176-2.827,5.507c-1.872,1.332-4.223,2.016-7.049,2.016C309.412,435.12,306.218,434.221,303.685,432.421"/>
<path fill="#6B6B6B" d="M186.147,2.069c101.664,0,184.078,82.415,184.078,184.078c0,101.664-82.414,184.078-184.078,184.078
	S2.069,287.811,2.069,186.146C2.069,84.484,84.483,2.069,186.147,2.069 M186.147,0c-25.127,0-49.506,4.923-72.459,14.631
	c-22.167,9.376-42.073,22.797-59.167,39.89c-17.093,17.094-30.515,37-39.89,59.167C4.922,136.641,0,161.02,0,186.146
	c0,25.127,4.922,49.506,14.631,72.459c9.375,22.167,22.797,42.074,39.89,59.167c17.094,17.095,37,30.516,59.167,39.891
	c22.953,9.709,47.332,14.631,72.459,14.631s49.506-4.922,72.459-14.631c22.167-9.375,42.073-22.796,59.167-39.891
	c17.093-17.093,30.515-37,39.89-59.167c9.709-22.953,14.632-47.332,14.632-72.459c0-25.127-4.923-49.506-14.632-72.458
	c-9.375-22.167-22.797-42.073-39.89-59.167c-17.094-17.093-37-30.514-59.167-39.89C235.653,4.923,211.274,0,186.147,0"/>
<path fill="#6B6B6B" d="M178.697,191.212c3.171,1.285,6.649,1.94,10.161,1.939c1.978,0,3.968-0.207,5.919-0.626
	c3.498-0.797,6.692-2.302,9.237-4.351c3.316-2.657,5.5-6.099,6.147-9.689c0.564-2.962-0.188-5.789-2.004-7.552
	c-1.032-1.065-2.533-1.692-4.546-1.864c-1.544,0.158-3.299,0.483-4.585,1.676c-1.365,1.114-2.194,2.855-2.274,4.777
	c-0.082,1.992,0.63,3.868,1.956,5.146c1.865,1.79,4.757,2.305,7.152,1.301c0.165-0.051,0.332-0.125,0.5-0.2
	c0.324-0.145,0.554-0.238,0.756-0.203c0.109,0.436-0.117,0.945-0.337,1.439l-0.057,0.13c-1.225,2.323-3.323,4.312-6.538,6.229
	c-0.667,0.257-1.292,0.542-1.827,0.832c-0.692,0.308-1.418,0.503-2.187,0.708c-0.28,0.075-0.562,0.15-0.852,0.234
	c-0.898,0.285-1.828,0.343-2.813,0.405c-0.396,0.025-0.792,0.049-1.167,0.088c-6.031,0.355-11.845-1.959-15.159-6.042
	c-2.592-3.149-3.735-7.292-3.05-11.151c0.018-1.146,0.477-2.191,0.962-3.296l0.238-0.557c1.106-1.876,2.808-3.531,4.923-4.785
	c3.468-2.046,7.391-3.281,11.185-4.474c0.858-0.271,1.717-0.54,2.571-0.82c4.071-1.347,8.004-2.759,11.367-5.214
	c1.747-1.335,3.145-2.936,4.179-4.812c0.099-0.256,0.201-0.512,0.304-0.768c0.292-0.728,0.595-1.48,0.827-2.322
	c0.036-0.292,0.074-0.585,0.114-0.879c0.223-1.67,0.451-3.398,0.12-5.104c-0.503-3.498-2.454-6.835-5.346-9.151
	c-3.111-2.581-7.358-4.221-12.644-4.877c-1.987-0.153-4.176-0.149-6.727,0.016c-4.254,0.639-8.029,2.055-11.217,4.209
	c-7.298,4.849-12.423,13.571-13.71,23.327c-1.437,10.31,1.158,20.453,7.119,27.829C170.484,186.584,174.391,189.507,178.697,191.212
	 M199.257,142.731c0.226,4.203-0.92,8.035-3.229,10.793c-2.953,3.634-7.238,5.807-11.381,7.908l-1.452,0.74
	c-3.595,1.844-7.314,3.751-9.886,7.007c-0.631,0.781-1.089,1.655-1.456,2.514c-0.952-4.976-1.163-10.548-0.644-16.973
	c0.621-6.554,1.989-11.931,4.181-16.437c1.99-4.016,4.513-6.861,7.494-8.454c2.773-1.411,5.845-1.76,8.437-0.955
	c2.322,0.684,4.418,2.459,5.616,4.768C198.329,136.013,199.087,138.984,199.257,142.731"/>
<path fill="#6B6B6B" d="M311.368,251.617c-0.029-0.003-0.058-0.004-0.085,0.001c-1.545,0.158-3.3,0.483-4.585,1.674
	c-1.365,1.115-2.193,2.856-2.273,4.777c-0.082,1.993,0.63,3.869,1.956,5.146c1.864,1.789,4.757,2.309,7.151,1.301
	c0.165-0.051,0.331-0.124,0.499-0.198c0.325-0.146,0.555-0.241,0.757-0.204c0.109,0.436-0.116,0.946-0.336,1.439l-0.057,0.129
	c-1.225,2.322-3.324,4.312-6.539,6.229c-0.679,0.262-1.286,0.54-1.827,0.833c-0.691,0.309-1.417,0.502-2.186,0.707
	c-0.281,0.076-0.563,0.151-0.853,0.235c-0.897,0.285-1.828,0.343-2.812,0.404c-0.396,0.024-0.792,0.05-1.167,0.089
	c-6.032,0.353-11.845-1.959-15.159-6.042c-2.592-3.15-3.734-7.292-3.05-11.152c0.018-1.146,0.477-2.191,0.963-3.297l0.237-0.557
	c1.105-1.876,2.809-3.529,4.923-4.783c3.469-2.048,7.392-3.281,11.187-4.477c0.859-0.27,1.717-0.539,2.57-0.818
	c4.07-1.347,8.001-2.758,11.367-5.214c1.747-1.335,3.144-2.936,4.178-4.812c0.1-0.256,0.202-0.513,0.305-0.769
	c0.292-0.729,0.595-1.479,0.826-2.322c0.036-0.291,0.075-0.585,0.115-0.878c0.222-1.671,0.451-3.399,0.12-5.105
	c-0.503-3.498-2.454-6.835-5.346-9.152c-3.112-2.581-7.359-4.22-12.645-4.876c-1.987-0.154-4.175-0.149-6.726,0.016
	c-4.254,0.639-8.029,2.055-11.217,4.209c-7.299,4.85-12.424,13.571-13.711,23.327c-1.438,10.31,1.157,20.453,7.119,27.828
	c3.086,3.824,6.993,6.749,11.299,8.452c3.17,1.286,6.648,1.94,10.162,1.94c1.979,0,3.968-0.207,5.918-0.626
	c3.497-0.797,6.692-2.302,9.237-4.351c3.317-2.658,5.5-6.101,6.147-9.69c0.564-2.962-0.188-5.788-2.004-7.551
	C314.797,252.416,313.296,251.789,311.368,251.617 M306.929,225.278c0.225,4.204-0.92,8.037-3.229,10.794
	c-2.953,3.635-7.239,5.808-11.384,7.91l-1.446,0.738c-3.597,1.844-7.315,3.75-9.889,7.006c-0.631,0.78-1.088,1.654-1.456,2.514
	c-0.952-4.976-1.163-10.546-0.644-16.973c0.621-6.555,1.988-11.932,4.181-16.438c1.99-4.014,4.513-6.86,7.493-8.453
	c2.773-1.411,5.844-1.761,8.438-0.956c2.322,0.685,4.418,2.46,5.616,4.769C306,218.561,306.759,221.532,306.929,225.278"/>
<path fill="#6B6B6B" d="M66.36,191.863c0.068-0.013,0.132-0.041,0.186-0.082l0.073-0.056l1.166-0.068
	c0.047-0.003,0.093-0.014,0.137-0.032c0.174-0.07,0.373-0.139,0.563-0.205l0.215-0.077c0.233-0.071,0.479-0.136,0.721-0.198
	l0.295-0.078c0.258-0.075,0.53-0.142,0.791-0.201c0.031-0.007,0.061-0.017,0.089-0.03l0.434-0.2c0.16-0.073,0.32-0.146,0.478-0.221
	l0.191-0.022c0.048-0.006,0.094-0.019,0.137-0.04c0.495-0.238,0.999-0.452,1.539-0.68c0.337-0.179,0.675-0.359,0.994-0.533
	c1.564-0.778,2.982-1.783,4.433-2.843c3.993-3.216,7.238-7.41,9.385-12.127c3.611-7.874,4.247-17.285,1.745-25.815
	c-2.144-7.569-7.048-14.114-13.487-17.975l-0.487-0.243c-0.956-0.527-1.771-0.948-2.635-1.29l-1.273-0.508
	c-0.264-0.102-0.527-0.196-0.81-0.292c-0.168-0.051-0.338-0.098-0.507-0.145c-0.234-0.065-0.467-0.13-0.715-0.208
	c-2.33-0.64-4.413-0.948-6.344-0.902c-0.084-0.096-0.243-0.144-0.333-0.151c-0.434,0.003-0.864,0.003-1.295,0
	c-0.107,0.003-0.248,0.054-0.332,0.149c-1.23-0.02-2.434,0.147-3.606,0.309l-0.477,0.065c-0.11,0.015-0.206,0.071-0.274,0.15
	c-0.39,0.044-0.791,0.096-1.209,0.207l-0.519,0.167c-0.246,0.08-0.493,0.153-0.739,0.225l-0.494,0.148
	c-0.267,0.084-0.533,0.173-0.811,0.276l-0.323,0.134c-0.413,0.172-0.826,0.344-1.269,0.51c-0.863,0.376-1.679,0.819-2.276,1.154
	c-0.129,0.065-0.386,0.196-0.539,0.277c-0.735,0.444-1.448,0.936-2.138,1.412l-0.785,0.54c-2.849,2.233-5.216,4.774-7.032,7.546
	c-5.366,7.915-7.25,18.472-5.037,28.232c1.584,7.373,5.503,13.869,11.047,18.301c1.143,0.849,2.372,1.739,3.729,2.455l0.691,0.373
	l3.05,1.339c0.184,0.075,0.368,0.15,0.613,0.25c0.259,0.067,0.515,0.141,0.801,0.226c0.548,0.123,1.124,0.295,1.758,0.525
	c0.033,0.011,0.067,0.02,0.102,0.023c0.162,0.018,0.243,0.036,0.323,0.053c0.103,0.022,0.205,0.044,0.329,0.05
	c0.414,0.13,0.934,0.189,1.252,0.225c0.088,0.117,0.234,0.196,0.383,0.2c1.012,0.031,2.076,0.063,3.15,0.063
	C63.092,192.225,64.795,192.146,66.36,191.863 M57.218,190.038l-0.396-0.178c-0.342-0.153-0.684-0.306-0.984-0.446l-1.264-0.752
	c-0.199-0.15-0.394-0.306-0.588-0.46c-0.238-0.19-0.475-0.378-0.689-0.535c-3.729-3.292-6.194-8.204-7.755-15.449
	c-1.224-6.138-1.539-12.771-0.938-19.711c0.678-6.838,2.137-11.998,4.591-16.241c1.155-2.015,2.671-3.789,4.476-5.249
	c0.273-0.183,0.542-0.372,0.811-0.561l0.464-0.328c0.71-0.385,1.468-0.786,2.226-1.088c0.204-0.071,0.407-0.146,0.61-0.221
	l0.452-0.168c0.332-0.087,0.668-0.153,1.005-0.219l0.269-0.054c0.642-0.181,1.317-0.193,2.031-0.206l0.286-0.005
	c0.125-0.003,0.243-0.059,0.324-0.155c0.367,0,0.733-0.002,1.101-0.006c0.078,0.094,0.194,0.156,0.325,0.16l0.298,0.008
	c0.614,0.015,1.193,0.03,1.807,0.238l0.766,0.114c0.736,0.281,1.471,0.566,2.173,0.865c3.714,1.879,6.634,5.494,8.676,10.74
	c2.39,6.317,3.361,13.576,3.056,22.836c-0.342,6.576-1.329,11.703-3.11,16.135c-1.261,3.177-3.644,7.475-7.822,9.91
	c-0.494,0.263-0.989,0.527-1.432,0.751c-0.21,0.066-0.419,0.137-0.628,0.208l-0.498,0.167c-0.267,0.094-0.536,0.181-0.805,0.267
	l-0.318,0.112c-0.274,0.033-0.548,0.072-0.829,0.119c-1.773,0.327-3.657,0.329-5.452,0.006c-0.264-0.044-0.529-0.086-0.793-0.124
	L57.218,190.038z"/>
<path fill="#6B6B6B" d="M93.091,129.763c0.394,0.216,0.787,0.312,1.14,0.292l6.62-0.003c0.004,7.752,0.002,15.506,0,23.258
	c-0.002,12.493-0.005,24.987,0.014,37.479c-0.72,0.004-1.454-0.006-2.181-0.013c-1.774-0.02-3.608-0.039-5.413,0.081
	c-0.187,0.012-0.345,0.141-0.394,0.322c-0.049,0.18,0.022,0.371,0.176,0.477c0.505,0.344,1.071,0.333,1.568,0.326
	c0.125-0.003,0.249-0.005,0.39,0c3.139-0.022,6.278-0.013,9.418-0.005c4.622,0.014,9.4,0.028,14.1-0.064
	c0.186-0.004,0.349-0.124,0.407-0.301c0.059-0.177-0.001-0.37-0.148-0.484c-0.372-0.285-0.819-0.409-1.256-0.359
	c-0.917,0.007-1.836,0.006-2.756,0.004c-1.211-0.002-2.423-0.004-3.635,0.014c0.02-8.555,0.017-17.11,0.014-25.665
	c-0.003-5.077-0.005-10.153-0.002-15.225c0.005-0.377,0.002-0.755,0-1.133c-0.005-0.87-0.011-1.77,0.077-2.663
	c0.196-4.387,2.047-8.671,5.079-11.755c2.174-2.21,5.178-3.635,8.423-4.008c3.731-0.137,6.698,0.644,8.825,2.331
	c1.96,1.48,3.135,3.943,3.589,7.516c0.19,1.919,0.166,3.892,0.051,5.801c-0.071,1.193-0.05,2.426-0.05,3.645v24.574
	c0,4.075,0.011,8.042,1.295,11.758c0.822,2.629,2.636,4.917,4.935,6.125c1.414,0.722,3.033,1.084,4.711,1.084
	c1.561,0,3.142-0.314,4.608-0.945c3.263-1.482,5.681-4.714,6.307-8.388c0.127-0.446,0.077-0.904-0.143-1.325
	c-0.084-0.162-0.258-0.252-0.443-0.233c-0.181,0.023-0.328,0.156-0.371,0.334c-0.06,0.255-0.109,0.513-0.161,0.771
	c-0.16,0.8-0.306,1.555-0.715,2.232c-0.887,1.673-2.588,2.742-4.289,2.656c-1.697,0.027-3.331-0.93-4.04-2.385
	c-0.664-1.219-0.205-2.7-0.203-4.007c0.003-5.399,0.509-10.797,0.509-16.195v-11.968c0-3.626-0.55-7.172-1.316-10.687
	c-0.981-4.724-3.157-8.421-5.861-10.983c-2.397-2.375-5.917-3.895-9.691-4.277c-1.433-0.264-2.913-0.124-4.296,0.01
	c-0.508,0.05-1.041,0.099-1.607,0.136c-2.322,0.459-4.275,1.099-5.942,1.956c-4.017,2.038-7.312,5.339-9.277,9.244
	c0.015-2.088,0.006-4.181,0-6.222c-0.003-1.197-0.008-2.394-0.007-3.591c0-0.116-0.048-0.228-0.13-0.311
	c-0.083-0.082-0.216-0.127-0.312-0.127c-2.087,0.013-4.173,0.003-6.26-0.007c-3.659-0.018-7.442-0.036-11.16,0.082
	c-0.197,0.006-0.366,0.144-0.412,0.335C92.83,129.469,92.918,129.668,93.091,129.763"/>
<path fill="#6B6B6B" d="M197.645,230.712c-2.145-7.568-7.048-14.112-13.486-17.974l-0.487-0.241
	c-0.953-0.526-1.766-0.947-2.634-1.291l-1.273-0.508c-0.264-0.102-0.528-0.195-0.811-0.293c-0.169-0.05-0.339-0.097-0.508-0.144
	c-0.234-0.065-0.467-0.13-0.714-0.209c-2.2-0.603-7.033-0.885-7.68-0.849c-1.311,0.059-3.664,0.18-4.706,0.321
	c-0.11,0.014-0.207,0.07-0.274,0.149c-0.39,0.044-0.792,0.096-1.21,0.206c-0.129,0.044-0.386,0.127-0.517,0.169
	c-0.246,0.079-0.491,0.151-0.737,0.223l-0.497,0.15c-0.268,0.083-0.533,0.172-0.811,0.276l-0.29,0.12
	c-0.424,0.176-0.848,0.352-1.303,0.523c-0.865,0.378-1.679,0.82-2.272,1.153c-0.13,0.064-0.388,0.196-0.542,0.279
	c-0.731,0.441-1.442,0.931-2.128,1.405l-0.795,0.546c-2.848,2.231-5.215,4.772-7.032,7.546c-5.366,7.916-7.249,18.471-5.037,28.233
	c1.583,7.372,5.502,13.868,11.047,18.3c1.142,0.849,2.371,1.738,3.729,2.455l0.69,0.373l1.384,0.674
	c0.426,0.17,0.852,0.339,1.27,0.501l0.388,0.16c0.187,0.077,0.374,0.153,0.622,0.254c0.258,0.068,0.513,0.14,0.801,0.228
	c0.551,0.122,1.127,0.294,1.758,0.523c0.033,0.012,0.066,0.02,0.101,0.023c0.174,0.02,0.298,0.039,0.421,0.058
	c0.137,0.021,0.274,0.041,0.384,0.044c0.569,0.179,0.792,0.227,1.418,0.261c0.077,0.098,0.195,0.16,0.328,0.164l0.101,0.003
	c1.012,0.03,2.037,0.062,3.062,0.062c1.63,0,3.258-0.079,4.823-0.363c0.097-0.018,0.185-0.067,0.25-0.141l1.06-0.065
	c0.047-0.004,0.093-0.014,0.137-0.031c0.243-0.099,0.514-0.194,0.76-0.281c0.249-0.077,0.509-0.146,0.765-0.213l0.241-0.064
	c0.258-0.075,0.526-0.141,0.786-0.201c0.031-0.007,0.06-0.017,0.088-0.029l0.415-0.191c0.166-0.077,0.331-0.153,0.495-0.23
	l0.19-0.022c0.048-0.005,0.094-0.019,0.137-0.039c0.495-0.238,0.998-0.452,1.539-0.68c0.337-0.179,0.674-0.359,0.994-0.534
	c1.564-0.778,2.981-1.782,4.432-2.842c3.993-3.216,7.238-7.409,9.385-12.128C199.511,248.656,200.147,239.245,197.645,230.712
	 M172.623,272.995c-1.773,0.326-3.658,0.329-5.452,0.006c-0.278-0.047-0.555-0.091-0.755-0.111l-1.484-0.493l-0.429-0.192
	c-0.331-0.149-0.662-0.296-0.951-0.432l-1.264-0.753c-0.199-0.148-0.394-0.305-0.588-0.46c-0.237-0.188-0.474-0.378-0.689-0.534
	c-3.73-3.293-6.195-8.203-7.755-15.447c-1.224-6.14-1.539-12.772-0.938-19.711c0.678-6.84,2.137-12,4.592-16.242
	c1.155-2.016,2.671-3.79,4.475-5.249c0.271-0.181,0.537-0.369,0.803-0.556l0.471-0.333c0.711-0.384,1.469-0.786,2.227-1.088
	c0.203-0.071,0.406-0.146,0.608-0.221l0.454-0.168c0.331-0.087,0.668-0.153,1.005-0.218l0.269-0.148
	c0.24-0.067,1.234-0.241,2.85-0.241h0.146c1.654,0,2.869,0.174,3.176,0.275c0.254,0.04,0.51,0.124,0.767,0.161
	c0.736,0.281,1.47,0.589,2.172,0.888c3.714,1.879,6.633,5.505,8.675,10.751c2.392,6.316,3.362,13.579,3.057,22.846
	c-0.342,6.574-1.33,11.701-3.109,16.135c-1.261,3.176-3.643,7.476-7.822,9.909c-0.495,0.265-0.989,0.528-1.432,0.753
	c-0.206,0.064-0.409,0.135-0.612,0.204l-0.515,0.172c-0.273,0.096-0.549,0.185-0.825,0.273l-0.297,0.104
	C173.178,272.909,172.903,272.949,172.623,272.995"/>
<path fill="#6B6B6B" d="M265.765,264.641c-0.182,0.021-0.33,0.155-0.373,0.332c-0.058,0.25-0.111,0.503-0.162,0.756
	c-0.163,0.806-0.319,1.565-0.719,2.226c-0.005,0.007-0.013,0.015-0.018,0.022c-0.886,1.674-2.615,2.742-4.313,2.656
	c-1.657,0.042-3.372-0.93-4.082-2.385c-0.665-1.222-0.295-2.701-0.292-4.007c0.003-5.365,0.341-10.73,0.341-16.094v-12.07
	c0-3.624-0.383-7.169-1.148-10.686c-0.982-4.726-2.996-8.422-5.7-10.982c-2.397-2.375-5.914-3.896-9.689-4.278
	c-1.433-0.264-2.913-0.123-4.297,0.012c-0.506,0.049-1.038,0.1-1.603,0.138c-2.324,0.458-4.276,1.102-5.942,1.958
	c-4.016,2.039-7.312,5.347-9.277,9.252c0.016-2.089,0.006-4.168,0-6.209c-0.003-1.197-0.008-2.367-0.007-3.564
	c0-0.117-0.047-0.195-0.13-0.277c-0.082-0.082-0.194-0.039-0.309-0.039h-0.003c-2.088,0-4.175-0.084-6.262-0.095
	c-3.657-0.018-7.441-0.134-11.159-0.017c-0.196,0.007-0.365,0.149-0.411,0.34c-0.047,0.192,0.042,0.39,0.215,0.485
	c0.394,0.218,0.788,0.287,1.14,0.287h6.62c0.004,8,0.002,15.511,0,23.263c-0.002,12.493-0.005,24.988,0.015,37.48
	c-0.725,0.011-1.454-0.004-2.182-0.013c-1.771-0.018-3.607-0.035-5.413,0.082c-0.187,0.013-0.345,0.142-0.394,0.321
	c-0.05,0.181,0.021,0.372,0.176,0.478c0.505,0.344,1.067,0.339,1.567,0.326c0.125-0.002,0.25-0.003,0.392,0.001
	c3.144-0.021,6.288-0.014,9.434-0.004c4.616,0.013,9.39,0.026,14.083-0.064c0.187-0.004,0.35-0.124,0.407-0.302
	c0.06-0.176-0.001-0.369-0.148-0.482c-0.368-0.286-0.82-0.41-1.256-0.361c-0.922,0.008-1.844,0.006-2.765,0.005
	c-1.211-0.004-2.418-0.005-3.625,0.014c0.02-8.555,0.016-17.108,0.013-25.664c-0.002-5.076-0.004-10.153-0.002-15.226
	c0.005-0.377,0.003-0.755,0-1.133c-0.005-0.87-0.011-1.77,0.077-2.663c0.196-4.386,2.047-8.671,5.08-11.755
	c2.174-2.21,5.177-3.635,8.422-4.007c3.735-0.15,6.698,0.643,8.825,2.33c2.078,1.57,3.453,4.243,3.87,7.515
	c0.218,2.209,0.173,4.683,0.128,6.873c-0.019,0.927-0.037,1.986-0.037,2.986h0.037h0.259v24.161l-0.154,1.38
	c-0.021,3.454-0.115,7.025,1.041,10.379c0.854,2.724,2.579,4.955,4.806,6.124c1.426,0.728,3.022,1.093,4.677,1.093
	c1.54,0,3.103-0.316,4.58-0.953c3.24-1.472,5.645-4.703,6.272-8.388c0.124-0.431,0.067-0.889-0.158-1.325
	C266.126,264.71,265.945,264.615,265.765,264.641"/>
<path fill="#6B6B6B" d="M314.172,128.778l-0.077-0.25c-0.056-0.174-0.213-0.296-0.395-0.306c-1.086-0.058-2.188-0.049-3.254-0.039
	c-0.653,0.005-1.305,0.011-1.964,0.001c-2.026,0.012-4.051,0.005-6.077-0.001c-3.282-0.013-6.674-0.023-10.009,0.051
	c-0.204,0.005-0.377,0.149-0.419,0.349c-0.041,0.201,0.061,0.402,0.248,0.487l0.664,0.3c0.051,0.023,0.105,0.035,0.161,0.038
	c2.395,0.092,5.09,0.417,6.929,2.129c1.666,1.515,1.79,3.857,1.714,5.12c-0.146,2.658-1.107,5.214-2.036,7.686
	c-0.25,0.664-0.498,1.326-0.731,1.984l-6.486,17.635c-0.613,1.705-1.245,3.403-1.877,5.102c-0.889,2.386-1.803,4.843-2.654,7.299
	c-0.354-0.732-0.728-1.412-1.093-2.077c-0.384-0.697-0.781-1.297-1.157-2.081c-8.291-16.982-14.678-29.803-20.647-41.803h7.005
	h0.438c0.242,0,0.693-0.438,0.693-0.681v-1.099c0-0.116-0.174-0.119-0.256-0.201c-0.082-0.082-0.303-0.019-0.418-0.019h-0.011
	c-5.205,0-10.403-0.107-15.598-0.11c-8.494-0.007-17.274-0.066-25.977-0.03l0.034-3.552c0.046-4.495,0.093-9.158,0.089-13.732
	c0-0.151-0.078-0.297-0.206-0.377c-0.129-0.08-0.288-0.091-0.424-0.026c-1.432,0.695-6.641,2.844-8.366,3.668
	c-0.154,0.073-0.251,0.228-0.25,0.398c0.017,2.019,0.231,11.386,0.257,13.557c-1.592-0.025-4.557-0.021-6.154-0.015
	c-0.999,0.003-1.983,0.006-2.938,0.001c-0.144-0.005-0.419-0.064-0.501,0.018c-0.083,0.082-0.282,0.201-0.282,0.201v1.999h0.779
	h9.221v14.156v29.589c0,4.282-0.084,7.513,1.193,10.474c1.223,2.907,2.922,5.308,5.569,6.761c3.361,1.844,7.521,2.446,11.934,1.69
	c3.826-0.807,7.261-2.931,9.517-5.823c0.263-0.33,0.499-0.706,0.78-1.153c1.536-2.013,2.507-4.167,2.909-6.397
	c0.565-2.963-0.194-5.791-2.011-7.555c-1.032-1.067-2.538-1.694-4.549-1.865c-1.545,0.158-3.301,0.483-4.586,1.675
	c-1.366,1.114-2.196,2.855-2.276,4.777c-0.082,1.992,0.631,3.867,1.956,5.146c1.864,1.789,4.755,2.305,7.152,1.3
	c0.165-0.051,0.332-0.124,0.499-0.199c0.324-0.144,0.553-0.241,0.756-0.203c0.087,0.347-0.037,0.734-0.178,1.078
	c-0.939,1.794-2.604,3.292-4.577,4.116c-1.971,0.879-4.399,1.019-7.216,0.414c-2.498-0.525-4.689-2.064-5.882-4.152
	c-0.456-0.648-0.72-1.4-0.999-2.195c-0.084-0.239-0.168-0.477-0.243-0.67c-0.789-2.954-0.776-5.782-0.763-8.776
	c0.003-0.717,0.006-1.319-0.002-2.05l-0.003-40.138h23.097c5.567,11,11.224,22.882,16.695,34.011
	c4.113,8.365,8.228,16.673,12.348,25.123l-0.226,0.559c-1.592,4.177-3.096,8.107-5.392,11.878c-1.735,2.851-3.667,4.801-5.901,5.974
	c-2.714,1.383-6.066,1.557-9.198,0.478c-2.391-0.829-4.317-2.879-5.026-5.337c-0.156-0.595-0.284-1.173-0.166-1.683
	c0.397,0.046,0.787,0.199,1.197,0.361c0.434,0.171,0.883,0.348,1.347,0.409c2.14,0.461,4.448-0.211,6.03-1.757
	c1.252-1.264,1.948-3.095,1.913-5.028c-0.035-1.884-0.775-3.633-2.033-4.811c-1.394-1.295-3.522-1.859-5.707-1.529
	c-2.178,0.395-4.141,2.014-5.118,4.17c-0.989,1.992-1.163,4.548-0.532,7.708c0.698,3.403,2.621,6.182,5.262,7.684
	c1.879,1.16,4.242,1.79,7.233,1.79h0.242c2.993-1,5.91-1.385,8.002-3.4c3.241-3.072,5.157-7.289,6.997-11.556
	c1.263-3.115,2.431-6.285,3.56-9.387c0.618-1.698,1.236-3.378,1.873-5.072c3.927-10.678,7.854-21.344,11.784-32.02l0.52-1.421
	c1.505-4.139,3.061-8.417,5.378-12.224c1.739-2.801,3.597-4.548,5.717-5.359c0.477-0.237,1.015-0.312,1.585-0.39
	c0.417-0.057,0.848-0.116,1.271-0.243c0.113-0.034,0.207-0.111,0.263-0.215C314.197,129.012,314.208,128.891,314.172,128.778"/>
</svg>
