<?xml version="1.0" encoding="utf-8"?>
<!-- Generator: Adobe Illustrator 15.0.0, SVG Export Plug-In . SVG Version: 6.00 Build 0)  -->
<!DOCTYPE svg PUBLIC "-//W3C//DTD SVG 1.1//EN" "http://www.w3.org/Graphics/SVG/1.1/DTD/svg11.dtd">
<svg version="1.1" id="Layer_1" xmlns="http://www.w3.org/2000/svg" xmlns:xlink="http://www.w3.org/1999/xlink" x="0px" y="0px"
	 width="616.744px" height="773.163px" viewBox="0 0 616.744 773.163" enable-background="new 0 0 616.744 773.163"
	 xml:space="preserve">
<g>
	<g>
		<path fill="#6FB1D0" d="M308.372,18.837C137.582,18.837,0,156.418,0,322.465c0,237.209,251.442,412.744,260.93,417.488
			l18.977,14.233l28.465,18.977l28.465-18.977l18.978-14.233c28.465-18.977,260.93-189.767,260.93-417.488
			C612,156.418,474.419,18.837,308.372,18.837z M327.349,702l-18.977,14.232L289.396,702
			c-9.488-4.744-237.209-170.791-237.209-379.535C47.442,184.884,166.046,66.279,308.372,66.279
			c142.325,0,256.187,113.86,256.187,256.186C564.559,535.953,336.837,697.256,327.349,702z M308.372,180.14
			c-80.651,0-147.07,66.418-147.07,147.07c0,80.651,66.418,147.07,147.07,147.07s147.069-66.419,147.069-147.07
			C450.697,246.558,389.023,180.14,308.372,180.14z M308.372,422.093c-52.186,0-94.884-42.697-94.884-94.883
			s42.698-94.884,94.884-94.884c52.187,0,94.884,42.698,94.884,94.884S360.559,422.093,308.372,422.093z"/>
	</g>
</g>
</svg>
